REM DIRINDEX 1\2,1\3
REM DIRNAME folder01,folder02,folder03
TITLE ""
FILE "DaigakuNyushi150-12.mp3" MP3
  TRACK 01 AUDIO
    TITLE "3:cjc122_251"
    INDEX 01 00:00:00
  TRACK 02 AUDIO
    TITLE "0:"
    INDEX 01 00:01:71
  TRACK 03 AUDIO
    TITLE "2:cjc122_252"
    INDEX 01 00:02:28
  TRACK 04 AUDIO
    TITLE "0:"
    INDEX 01 00:07:02
  TRACK 05 AUDIO
    TITLE "3:cjc122_253"
    INDEX 01 00:07:37
  TRACK 06 AUDIO
    TITLE "0:"
    INDEX 01 00:09:24
  TRACK 07 AUDIO
    TITLE "2:cjc122_254"
    INDEX 01 00:09:57
  TRACK 08 AUDIO
    TITLE "0:"
    INDEX 01 00:12:67
  TRACK 09 AUDIO
    TITLE "3:cjc122_255"
    INDEX 01 00:13:20
  TRACK 10 AUDIO
    TITLE "0:"
    INDEX 01 00:15:32
  TRACK 11 AUDIO
    TITLE "2:cjc122_256"
    INDEX 01 00:15:70
  TRACK 12 AUDIO
    TITLE "0:"
    INDEX 01 00:21:15
  TRACK 13 AUDIO
    TITLE "2:cjc122_257"
    INDEX 01 00:21:45
  TRACK 14 AUDIO
    TITLE "0:"
    INDEX 01 00:27:22
  TRACK 15 AUDIO
    TITLE "3:cjc122_258"
    INDEX 01 00:27:49
  TRACK 16 AUDIO
    TITLE "0:"
    INDEX 01 00:29:64
  TRACK 17 AUDIO
    TITLE "2:cjc122_259"
    INDEX 01 00:30:18
  TRACK 18 AUDIO
    TITLE "0:"
    INDEX 01 00:33:01
  TRACK 19 AUDIO
    TITLE "3:cjc122_260"
    INDEX 01 00:33:32
  TRACK 20 AUDIO
    TITLE "0:"
    INDEX 01 00:35:43
  TRACK 21 AUDIO
    TITLE "2:cjc122_261"
    INDEX 01 00:36:03
  TRACK 22 AUDIO
    TITLE "0:"
    INDEX 01 00:39:51
  TRACK 23 AUDIO
    TITLE "2:cjc122_262"
    INDEX 01 00:40:09
  TRACK 24 AUDIO
    TITLE "0:"
    INDEX 01 00:43:40
  TRACK 25 AUDIO
    TITLE "3:cjc122_263"
    INDEX 01 00:43:70
  TRACK 26 AUDIO
    TITLE "0:"
    INDEX 01 00:46:06
  TRACK 27 AUDIO
    TITLE "2:cjc122_264"
    INDEX 01 00:46:31
  TRACK 28 AUDIO
    TITLE "0:"
    INDEX 01 00:51:50
  TRACK 29 AUDIO
    TITLE "3:cjc122_265"
    INDEX 01 00:52:04
  TRACK 30 AUDIO
    TITLE "0:"
    INDEX 01 00:54:17
  TRACK 31 AUDIO
    TITLE "2:cjc122_266"
    INDEX 01 00:54:44
  TRACK 32 AUDIO
    TITLE "0:"
    INDEX 01 00:57:60
  TRACK 33 AUDIO
    TITLE "3:cjc122_267"
    INDEX 01 00:58:11
  TRACK 34 AUDIO
    TITLE "0:"
    INDEX 01 01:00:15
  TRACK 35 AUDIO
    TITLE "2:cjc122_268"
    INDEX 01 01:00:43
  TRACK 36 AUDIO
    TITLE "0:"
    INDEX 01 01:04:39
  TRACK 37 AUDIO
    TITLE "2:cjc122_269"
    INDEX 01 01:04:74
  TRACK 38 AUDIO
    TITLE "0:"
    INDEX 01 01:08:50
  TRACK 39 AUDIO
    TITLE "2:cjc122_270"
    INDEX 01 01:09:09
  TRACK 40 AUDIO
    TITLE "0:"
    INDEX 01 01:11:51
  TRACK 41 AUDIO
    TITLE "3:cjc122_271"
    INDEX 01 01:12:07
  TRACK 42 AUDIO
    TITLE "0:"
    INDEX 01 01:14:10
  TRACK 43 AUDIO
    TITLE "2:cjc122_272"
    INDEX 01 01:14:47
  TRACK 44 AUDIO
    TITLE "0:"
    INDEX 01 01:17:63
  TRACK 45 AUDIO
    TITLE "2:cjc122_273"
    INDEX 01 01:18:29
  TRACK 46 AUDIO
    TITLE "0:"
    INDEX 01 01:21:16
  TRACK 47 AUDIO
    TITLE "2:cjc122_274"
    INDEX 01 01:21:61
  TRACK 48 AUDIO
    TITLE "0:"
    INDEX 01 01:25:21
  TRACK 49 AUDIO
    TITLE "2:cjc122_275"
    INDEX 01 01:25:55
  TRACK 50 AUDIO
    TITLE "0:"
    INDEX 01 01:28:53
  TRACK 51 AUDIO
    TITLE "3:cjc122_276"
    INDEX 01 01:29:17
  TRACK 52 AUDIO
    TITLE "0:"
    INDEX 01 01:31:04
  TRACK 53 AUDIO
    TITLE "2:cjc122_277"
    INDEX 01 01:31:34
  TRACK 54 AUDIO
    TITLE "0:"
    INDEX 01 01:35:33
  TRACK 55 AUDIO
    TITLE "2:cjc122_278"
    INDEX 01 01:35:65
  TRACK 56 AUDIO
    TITLE "0:"
    INDEX 01 01:39:74
  TRACK 57 AUDIO
    TITLE "2:cjc122_279"
    INDEX 01 01:40:25
  TRACK 58 AUDIO
    TITLE "0:"
    INDEX 01 01:44:44
  TRACK 59 AUDIO
    TITLE "2:cjc122_280"
    INDEX 01 01:44:72
  TRACK 60 AUDIO
    TITLE "0:"
    INDEX 01 01:49:22
